<svg width="147" height="46" viewBox="0 0 147 46" fill="none" xmlns="http://www.w3.org/2000/svg">
<g filter="url(#filter0_dd_583_759)">
<path d="M3 22C3 10.9543 11.9543 2 23 2C34.0457 2 43 10.9543 43 22C43 33.0457 34.0457 42 23 42C11.9543 42 3 33.0457 3 22Z" fill="#171717"/>
<g clip-path="url(#clip0_583_759)">
<path fill-rule="evenodd" clip-rule="evenodd" d="M21.3725 21.9893V18.7036L35.0002 32.2926V33.9995L12.205 33.9311L11.04 33.9272V32.7745C11.04 30.467 11.3889 28.1745 12.0806 25.9723C12.7717 23.7725 13.7994 21.6884 15.1197 19.7964C15.6562 19.0277 16.2399 18.292 16.8673 17.595C17.4175 16.9837 18.0006 16.402 18.6136 15.8534C20.5344 14.1352 22.7386 12.7513 25.1227 11.767C27.8882 10.6253 30.8423 10.043 33.835 10.043H35.0002V25.0409H31.0409L24.853 18.8712C25.4846 18.324 26.1812 17.9639 26.9763 17.7023L32.0065 22.7178H32.6702V12.3984L32.5921 12.403C30.3272 12.5378 28.1014 13.0428 26.0047 13.9088C23.9081 14.7748 21.9712 15.9931 20.2679 17.4874C19.6445 18.0343 19.0541 18.619 18.5032 19.2386C17.8744 19.9458 17.295 20.6966 16.7755 21.4871C15.7203 23.0922 14.8831 24.8315 14.3012 26.6615C13.798 28.2437 13.5055 29.8874 13.4066 31.5438L13.402 31.6214L31.0848 31.6745L21.3725 21.9893Z" fill="white"/>
<path fill-rule="evenodd" clip-rule="evenodd" d="M11 18.9364C13.2233 15.2832 16.3036 12.2109 19.9615 10H11V18.9364Z" fill="white"/>
</g>
</g>
<path d="M69.098 19.5469H65.9872C65.9304 19.1444 65.8144 18.7869 65.6392 18.4744C65.464 18.1572 65.2391 17.8873 64.9645 17.6648C64.6899 17.4422 64.3726 17.2718 64.0128 17.1534C63.6577 17.035 63.2718 16.9759 62.8551 16.9759C62.1023 16.9759 61.4465 17.1629 60.8878 17.5369C60.3291 17.9062 59.8958 18.446 59.5881 19.1562C59.2803 19.8617 59.1264 20.7187 59.1264 21.7273C59.1264 22.7642 59.2803 23.6354 59.5881 24.3409C59.9006 25.0464 60.3362 25.5791 60.8949 25.9389C61.4536 26.2988 62.0999 26.4787 62.8338 26.4787C63.2457 26.4787 63.6269 26.4242 63.9773 26.3153C64.3324 26.2064 64.6473 26.0478 64.9219 25.8395C65.1965 25.6264 65.4238 25.3684 65.6037 25.0653C65.7884 24.7623 65.9162 24.4167 65.9872 24.0284L69.098 24.0426C69.0175 24.7102 68.8163 25.3542 68.4943 25.9744C68.1771 26.59 67.7486 27.1416 67.2088 27.6293C66.6738 28.1122 66.0346 28.4957 65.2912 28.7798C64.5526 29.0592 63.7169 29.1989 62.7841 29.1989C61.4867 29.1989 60.3267 28.9053 59.304 28.3182C58.286 27.7311 57.4811 26.8812 56.8892 25.7685C56.3021 24.6558 56.0085 23.3087 56.0085 21.7273C56.0085 20.1411 56.3068 18.7917 56.9034 17.679C57.5 16.5663 58.3097 15.7187 59.3324 15.1364C60.3551 14.5492 61.5057 14.2557 62.7841 14.2557C63.6269 14.2557 64.4081 14.3741 65.1278 14.6108C65.8523 14.8475 66.4938 15.1932 67.0526 15.6477C67.6113 16.0975 68.0658 16.6491 68.4162 17.3026C68.7713 17.956 68.9986 18.7041 69.098 19.5469ZM75.2688 29.2131C74.1467 29.2131 73.1808 28.9858 72.3711 28.5312C71.5662 28.072 70.9459 27.4233 70.5103 26.5852C70.0747 25.7424 69.8569 24.7457 69.8569 23.5952C69.8569 22.473 70.0747 21.4882 70.5103 20.6406C70.9459 19.7931 71.5591 19.1326 72.3498 18.6591C73.1452 18.1856 74.078 17.9489 75.1481 17.9489C75.8678 17.9489 76.5378 18.0649 77.158 18.2969C77.783 18.5241 78.3275 18.8674 78.7915 19.3267C79.2603 19.786 79.6249 20.3636 79.8853 21.0597C80.1457 21.7509 80.2759 22.5606 80.2759 23.4886V24.3196H71.0643V22.4446H77.4279C77.4279 22.009 77.3332 21.6231 77.1438 21.2869C76.9544 20.9508 76.6916 20.688 76.3555 20.4986C76.024 20.3045 75.6381 20.2074 75.1978 20.2074C74.7385 20.2074 74.3313 20.3139 73.9762 20.527C73.6258 20.7353 73.3512 21.017 73.1523 21.3722C72.9535 21.7225 72.8517 22.1132 72.8469 22.544V24.3267C72.8469 24.8665 72.9464 25.3329 73.1452 25.7259C73.3488 26.1188 73.6353 26.4219 74.0046 26.6349C74.3739 26.848 74.8119 26.9545 75.3185 26.9545C75.6547 26.9545 75.9625 26.9072 76.2418 26.8125C76.5212 26.7178 76.7603 26.5758 76.9592 26.3864C77.158 26.197 77.3095 25.965 77.4137 25.6903L80.212 25.875C80.07 26.5473 79.7788 27.1345 79.3384 27.6364C78.9028 28.1335 78.3394 28.5218 77.6481 28.8011C76.9615 29.0758 76.1684 29.2131 75.2688 29.2131ZM84.3267 22.6932V29H81.3011V18.0909H84.1847V20.0156H84.3125C84.554 19.3812 84.9588 18.8793 85.527 18.5099C86.0952 18.1359 86.7841 17.9489 87.5938 17.9489C88.3513 17.9489 89.0118 18.1146 89.5753 18.446C90.1387 18.7775 90.5767 19.2509 90.8892 19.8665C91.2017 20.4773 91.358 21.2064 91.358 22.054V29H88.3324V22.5938C88.3371 21.9261 88.1667 21.4053 87.821 21.0312C87.4754 20.6525 86.9995 20.4631 86.3935 20.4631C85.9863 20.4631 85.6264 20.5507 85.3139 20.7259C85.0062 20.901 84.7647 21.1567 84.5895 21.4929C84.419 21.8243 84.3314 22.2244 84.3267 22.6932ZM98.5959 18.0909V20.3636H92.0263V18.0909H98.5959ZM93.5178 15.4773H96.5433V25.6477C96.5433 25.9271 96.5859 26.1449 96.6712 26.3011C96.7564 26.4527 96.8748 26.5592 97.0263 26.6207C97.1825 26.6823 97.3625 26.7131 97.5661 26.7131C97.7081 26.7131 97.8501 26.7012 97.9922 26.6776C98.1342 26.6491 98.2431 26.6278 98.3189 26.6136L98.7947 28.8651C98.6432 28.9124 98.4302 28.9669 98.1555 29.0284C97.8809 29.0947 97.5471 29.1349 97.1541 29.1491C96.425 29.1776 95.7857 29.0805 95.2365 28.858C94.692 28.6354 94.2682 28.2898 93.9652 27.821C93.6622 27.3523 93.513 26.7604 93.5178 26.0455V15.4773ZM102.728 29.206C102.032 29.206 101.412 29.0852 100.868 28.8438C100.323 28.5975 99.8922 28.2353 99.5749 27.7571C99.2624 27.2741 99.1062 26.6728 99.1062 25.9531C99.1062 25.3471 99.2174 24.8381 99.44 24.4261C99.6625 24.0142 99.9656 23.6828 100.349 23.4318C100.733 23.1809 101.168 22.9915 101.656 22.8636C102.148 22.7358 102.664 22.6458 103.204 22.5938C103.839 22.5275 104.35 22.4659 104.738 22.4091C105.127 22.3475 105.408 22.2576 105.583 22.1392C105.759 22.0208 105.846 21.8456 105.846 21.6136V21.571C105.846 21.1212 105.704 20.7732 105.42 20.527C105.141 20.2808 104.743 20.1577 104.227 20.1577C103.682 20.1577 103.249 20.2784 102.927 20.5199C102.605 20.7566 102.392 21.0549 102.288 21.4148L99.4897 21.1875C99.6317 20.5246 99.9111 19.9517 100.328 19.4688C100.744 18.9811 101.282 18.607 101.94 18.3466C102.603 18.0814 103.37 17.9489 104.241 17.9489C104.847 17.9489 105.427 18.0199 105.981 18.1619C106.54 18.304 107.035 18.5241 107.466 18.8224C107.901 19.1207 108.244 19.5043 108.495 19.973C108.746 20.437 108.872 20.9934 108.872 21.642V29H106.002V27.4872H105.917C105.742 27.8281 105.508 28.1288 105.214 28.3892C104.921 28.6449 104.568 28.8461 104.156 28.9929C103.744 29.1349 103.268 29.206 102.728 29.206ZM103.595 27.1179C104.04 27.1179 104.433 27.0303 104.774 26.8551C105.115 26.6752 105.382 26.4337 105.576 26.1307C105.77 25.8277 105.868 25.4844 105.868 25.1009V23.9432C105.773 24.0047 105.643 24.0616 105.477 24.1136C105.316 24.161 105.134 24.206 104.93 24.2486C104.726 24.2865 104.523 24.322 104.319 24.3551C104.116 24.3835 103.931 24.4096 103.765 24.4332C103.41 24.4853 103.1 24.5682 102.835 24.6818C102.57 24.7955 102.364 24.9493 102.217 25.1435C102.07 25.3329 101.997 25.5696 101.997 25.8537C101.997 26.2656 102.146 26.5805 102.444 26.7983C102.747 27.0114 103.131 27.1179 103.595 27.1179ZM117.266 24.3551V18.0909H120.291V29H117.386V27.0185H117.273C117.027 27.6577 116.617 28.1714 116.044 28.5597C115.476 28.9479 114.782 29.142 113.963 29.142C113.234 29.142 112.592 28.9763 112.038 28.6449C111.484 28.3134 111.051 27.8423 110.739 27.2315C110.431 26.6207 110.275 25.8892 110.27 25.0369V18.0909H113.295V24.4972C113.3 25.1411 113.473 25.6501 113.814 26.0241C114.155 26.3982 114.612 26.5852 115.185 26.5852C115.549 26.5852 115.89 26.5024 116.207 26.3366C116.525 26.1662 116.78 25.9152 116.974 25.5838C117.173 25.2524 117.27 24.8428 117.266 24.3551ZM121.762 29V18.0909H124.695V19.9943H124.809C125.008 19.3172 125.342 18.8059 125.81 18.4602C126.279 18.1098 126.819 17.9347 127.43 17.9347C127.581 17.9347 127.745 17.9441 127.92 17.9631C128.095 17.982 128.249 18.008 128.381 18.0412V20.7259C128.239 20.6832 128.043 20.6454 127.792 20.6122C127.541 20.5791 127.311 20.5625 127.103 20.5625C126.658 20.5625 126.26 20.6596 125.91 20.8537C125.564 21.0431 125.29 21.3082 125.086 21.6491C124.887 21.9901 124.788 22.383 124.788 22.8281V29H121.762ZM129.515 29.1847C129.046 29.1847 128.644 29.0189 128.308 28.6875C127.976 28.3513 127.81 27.9489 127.81 27.4801C127.81 27.0161 127.976 26.6184 128.308 26.2869C128.644 25.9555 129.046 25.7898 129.515 25.7898C129.969 25.7898 130.367 25.9555 130.708 26.2869C131.049 26.6184 131.219 27.0161 131.219 27.4801C131.219 27.7926 131.139 28.0791 130.978 28.3395C130.822 28.5952 130.616 28.8011 130.36 28.9574C130.104 29.1089 129.823 29.1847 129.515 29.1847ZM135.865 29.206C135.169 29.206 134.549 29.0852 134.004 28.8438C133.46 28.5975 133.029 28.2353 132.712 27.7571C132.399 27.2741 132.243 26.6728 132.243 25.9531C132.243 25.3471 132.354 24.8381 132.577 24.4261C132.799 24.0142 133.102 23.6828 133.486 23.4318C133.869 23.1809 134.305 22.9915 134.793 22.8636C135.285 22.7358 135.801 22.6458 136.341 22.5938C136.975 22.5275 137.487 22.4659 137.875 22.4091C138.263 22.3475 138.545 22.2576 138.72 22.1392C138.895 22.0208 138.983 21.8456 138.983 21.6136V21.571C138.983 21.1212 138.841 20.7732 138.557 20.527C138.277 20.2808 137.88 20.1577 137.364 20.1577C136.819 20.1577 136.386 20.2784 136.064 20.5199C135.742 20.7566 135.529 21.0549 135.425 21.4148L132.626 21.1875C132.768 20.5246 133.048 19.9517 133.464 19.4688C133.881 18.9811 134.419 18.607 135.077 18.3466C135.74 18.0814 136.507 17.9489 137.378 17.9489C137.984 17.9489 138.564 18.0199 139.118 18.1619C139.677 18.304 140.171 18.5241 140.602 18.8224C141.038 19.1207 141.381 19.5043 141.632 19.973C141.883 20.437 142.009 20.9934 142.009 21.642V29H139.139V27.4872H139.054C138.879 27.8281 138.644 28.1288 138.351 28.3892C138.057 28.6449 137.705 28.8461 137.293 28.9929C136.881 29.1349 136.405 29.206 135.865 29.206ZM136.732 27.1179C137.177 27.1179 137.57 27.0303 137.911 26.8551C138.251 26.6752 138.519 26.4337 138.713 26.1307C138.907 25.8277 139.004 25.4844 139.004 25.1009V23.9432C138.91 24.0047 138.779 24.0616 138.614 24.1136C138.453 24.161 138.27 24.206 138.067 24.2486C137.863 24.2865 137.66 24.322 137.456 24.3551C137.252 24.3835 137.068 24.4096 136.902 24.4332C136.547 24.4853 136.237 24.5682 135.972 24.6818C135.706 24.7955 135.5 24.9493 135.354 25.1435C135.207 25.3329 135.134 25.5696 135.134 25.8537C135.134 26.2656 135.283 26.5805 135.581 26.7983C135.884 27.0114 136.268 27.1179 136.732 27.1179ZM143.407 29V18.0909H146.432V29H143.407ZM144.926 16.6847C144.477 16.6847 144.091 16.5355 143.769 16.2372C143.452 15.9342 143.293 15.572 143.293 15.1506C143.293 14.7339 143.452 14.3764 143.769 14.0781C144.091 13.7751 144.477 13.6236 144.926 13.6236C145.376 13.6236 145.76 13.7751 146.077 14.0781C146.399 14.3764 146.56 14.7339 146.56 15.1506C146.56 15.572 146.399 15.9342 146.077 16.2372C145.76 16.5355 145.376 16.6847 144.926 16.6847Z" fill="#171717"/>
<defs>
<filter id="filter0_dd_583_759" x="0" y="0" width="46" height="46" filterUnits="userSpaceOnUse" color-interpolation-filters="sRGB">
<feFlood flood-opacity="0" result="BackgroundImageFix"/>
<feColorMatrix in="SourceAlpha" type="matrix" values="0 0 0 0 0 0 0 0 0 0 0 0 0 0 0 0 0 0 127 0" result="hardAlpha"/>
<feMorphology radius="1" operator="erode" in="SourceAlpha" result="effect1_dropShadow_583_759"/>
<feOffset dy="1"/>
<feGaussianBlur stdDeviation="1"/>
<feComposite in2="hardAlpha" operator="out"/>
<feColorMatrix type="matrix" values="0 0 0 0 0 0 0 0 0 0 0 0 0 0 0 0 0 0 0.1 0"/>
<feBlend mode="normal" in2="BackgroundImageFix" result="effect1_dropShadow_583_759"/>
<feColorMatrix in="SourceAlpha" type="matrix" values="0 0 0 0 0 0 0 0 0 0 0 0 0 0 0 0 0 0 127 0" result="hardAlpha"/>
<feOffset dy="1"/>
<feGaussianBlur stdDeviation="1.5"/>
<feComposite in2="hardAlpha" operator="out"/>
<feColorMatrix type="matrix" values="0 0 0 0 0 0 0 0 0 0 0 0 0 0 0 0 0 0 0.1 0"/>
<feBlend mode="normal" in2="effect1_dropShadow_583_759" result="effect2_dropShadow_583_759"/>
<feBlend mode="normal" in="SourceGraphic" in2="effect2_dropShadow_583_759" result="shape"/>
</filter>
<clipPath id="clip0_583_759">
<rect width="24" height="24" fill="white" transform="translate(11 10)"/>
</clipPath>
</defs>
</svg>
